<svg xmlns="http://www.w3.org/2000/svg" fill-rule="evenodd" stroke-linejoin="round"
    stroke-miterlimit="2" clip-rule="evenodd" viewBox="0 0 6000 6000">
    <path fill="#d7d8ac"
        d="M1562.17 761.132c60-111.432 331.27-126.706 317.19 101.569-5.74 93.008-34.51 221.609-110.59 137.909-57.83-63.611-113.93 75.97-228.89 83.85-98.88 6.78-187.86-17.42-190.75-163.098-1.97-99.094 166.05-72.964 213.04-160.23Z"
        transform="translate(-9940.84 -4224.74) scale(8.10221)" />
    <path fill="#d7d8ac"
        d="M1575.17 700.048c-.16-1.23-1.46 2.011-2.11 3.062-1.22 1.948-2.33 3.962-3.59 5.892-4.05 6.251-8.28 13.079-13.26 18.617-14.21 15.82-36.34 25.516-56.43 30.857-19.45 5.171-39.6 5.715-59.59 4.353-32.18-2.192-63.69-6.801-90.53 15.92-8.14 6.892-14.72 15.313-20.39 24.298-10.26 16.237-21.74 43.024-9.41 61.202 6.55 9.656 19.93 16.001 29.81 7.473 9.51-8.207 14.19-21.857 20.8-32.246 9.14-14.358 21.44-26.206 35.91-35.137 40.93-25.263 90.71-23.417 132.93-44.652 16.79-8.444 31.89-23.286 40.31-40.121 2.99-5.984 6.09-13.143 5.75-20.012-.17-3.585-6.52-3.644-10.2.494Z"
        transform="translate(-9940.84 -4224.74) scale(8.10221)" />
    <path fill="#d7d8ac"
        d="M1335.61 892.086c-10.08-4.929-17.04 7.055-17.73 10.232-1.47 6.873-1.54 14.098 2.02 20.39 4.74 8.349 14.65 9.397 20.56 1.445a20.452 20.452 0 0 0 3.53-7.679c.89-3.913.59-7.935-.4-11.802-1.25-4.867-4.11-10.697-7.98-12.586Z"
        transform="matrix(8.10221 0 0 7.2252 -9950.662 -3532.445)" />
    <path fill="#88845f"
        d="M1502.21 798.011c0-2.114-1.12-4.141-3.11-5.635-1.99-1.495-4.69-2.334-7.5-2.334h-156.29c-2.81 0-5.51.839-7.5 2.334-1.99 1.494-3.11 3.521-3.11 5.635v8.228c0 2.114 1.12 4.141 3.11 5.635 1.99 1.495 4.69 2.335 7.5 2.335h156.29c2.81 0 5.51-.84 7.5-2.335 1.99-1.494 3.11-3.521 3.11-5.635v-8.228Z"
        transform="matrix(8.47765 5.73117 -7.63146 11.28858 -1739.598 -14366.016)" />
    <path fill="#fff"
        d="M1502.21 802.12c0-3.204-1.08-6.276-3.01-8.541-1.92-2.265-4.53-3.537-7.26-3.537h-156.98c-2.72 0-5.33 1.272-7.26 3.537-1.92 2.265-3 5.337-3 8.541v.011c0 3.203 1.08 6.275 3 8.54 1.93 2.265 4.54 3.538 7.26 3.538h156.98c2.73 0 5.34-1.273 7.26-3.538 1.93-2.265 3.01-5.337 3.01-8.54v-.011Z"
        transform="matrix(3.32601 2.24853 -1.911 2.82674 1300.078 -2421.784)" />
    <path fill-opacity=".25"
        d="m1801.05 884.939-12.12 41.495-25.79-17.803s-6.91-2.528-5.94-6.715c.95-4.125 5.34-7.354 8.39-9.906 8.17-6.825 35.46-7.071 35.46-7.071Z"
        transform="translate(-9940.86 -4224.675) scale(8.10224)" />
    <path fill="#fff" fill-rule="nonzero"
        d="M1520.16 786.788v1.37c0 .217-.08.39-.25.517-.17.127-.4.191-.68.191-.29 0-.51-.063-.68-.188a.608.608 0 0 1-.25-.522v-1.368h.43v1.371c0 .137.04.242.13.314.08.072.21.108.37.108.33 0 .5-.144.5-.433v-1.36h.43ZM1521.62 788.424c0-.061-.03-.108-.09-.14-.07-.032-.17-.06-.31-.084a1.71 1.71 0 0 1-.35-.093c-.21-.083-.31-.202-.31-.359 0-.131.06-.241.2-.329a.916.916 0 0 1 .51-.133c.22 0 .4.046.54.136.13.09.2.206.2.35h-.41c0-.066-.03-.12-.09-.164a.397.397 0 0 0-.24-.065c-.09 0-.16.017-.22.052-.06.034-.09.081-.09.139 0 .053.03.093.08.122.06.03.16.059.33.088.16.03.29.065.38.106.1.041.16.09.21.147a.36.36 0 0 1 .07.208c0 .137-.07.248-.21.333-.14.085-.32.128-.54.128-.15 0-.29-.023-.41-.068a.587.587 0 0 1-.27-.186.372.372 0 0 1-.1-.255h.4c0 .081.04.143.11.187a.5.5 0 0 0 .27.065c.11 0 .2-.017.25-.051.06-.034.09-.079.09-.134ZM1523.2 788.866a.986.986 0 0 1-.64-.205.683.683 0 0 1-.24-.546v-.042c0-.152.03-.288.1-.407.08-.12.18-.213.3-.28.13-.066.28-.1.43-.1.26 0 .45.067.59.199.14.132.2.319.2.561v.138h-1.2a.41.41 0 0 0 .15.299c.09.073.2.11.34.11.19 0 .34-.064.46-.19l.22.175a.698.698 0 0 1-.29.212c-.12.05-.26.076-.42.076Zm-.05-1.305c-.11 0-.2.033-.27.098a.48.48 0 0 0-.14.275h.79v-.025a.323.323 0 0 0-.11-.26c-.06-.059-.15-.088-.27-.088ZM1525.24 787.627a1.524 1.524 0 0 0-.17-.011c-.19 0-.32.06-.39.18v1.041h-.41v-1.522h.39l.01.17c.1-.132.24-.199.42-.199.06 0 .11.007.15.02v.321Z"
        transform="rotate(34.06 161655.649 -159947.605) scale(80.0927)" />
    <path fill="#a6a27c"
        d="M1502.21 798.011c0-2.114-1.12-4.141-3.11-5.635-1.99-1.495-4.69-2.334-7.5-2.334h-156.29c-2.81 0-5.51.839-7.5 2.334-1.99 1.494-3.11 3.521-3.11 5.635v8.228c0 2.114 1.12 4.141 3.11 5.635 1.99 1.495 4.69 2.335 7.5 2.335h156.29c2.81 0 5.51-.84 7.5-2.335 1.99-1.494 3.11-3.521 3.11-5.635v-8.228Z"
        transform="matrix(8.54154 -5.63547 7.50401 11.37365 -13772.254 1807.345)" />
    <path fill="#fff"
        d="m1335.82 862.869 2.71 1.966-3.93 5.411 6.36 2.067-1.04 3.181-6.36-2.067v6.689h-3.34v-6.689l-6.36 2.067-1.04-3.181 6.36-2.067-3.93-5.411 2.71-1.966 3.93 5.411 3.93-5.411Z"
        transform="rotate(146.584 9258.636 4535.813) scale(9.83102)" />
    <path fill="#fff"
        d="m1335.82 862.869 2.71 1.966-3.93 5.411 6.36 2.067-1.04 3.181-6.36-2.067v6.689h-3.34v-6.689l-6.36 2.067-1.04-3.181 6.36-2.067-3.93-5.411 2.71-1.966 3.93 5.411 3.93-5.411Z"
        transform="rotate(146.584 9388.997 4496.683) scale(9.83102)" />
    <path fill="#fff"
        d="m1335.82 862.869 2.71 1.966-3.93 5.411 6.36 2.067-1.04 3.181-6.36-2.067v6.689h-3.34v-6.689l-6.36 2.067-1.04-3.181 6.36-2.067-3.93-5.411 2.71-1.966 3.93 5.411 3.93-5.411Z"
        transform="rotate(146.584 9519.358 4457.554) scale(9.83102)" />
    <path fill="#fff"
        d="m1335.82 862.869 2.71 1.966-3.93 5.411 6.36 2.067-1.04 3.181-6.36-2.067v6.689h-3.34v-6.689l-6.36 2.067-1.04-3.181 6.36-2.067-3.93-5.411 2.71-1.966 3.93 5.411 3.93-5.411Z"
        transform="rotate(146.584 9649.766 4418.41) scale(9.83102)" />
    <path fill="#fff"
        d="m1335.82 862.869 2.71 1.966-3.93 5.411 6.36 2.067-1.04 3.181-6.36-2.067v6.689h-3.34v-6.689l-6.36 2.067-1.04-3.181 6.36-2.067-3.93-5.411 2.71-1.966 3.93 5.411 3.93-5.411Z"
        transform="rotate(146.584 9780.127 4379.28) scale(9.83102)" />
    <g transform="translate(-9940.84 -4224.74) scale(8.10221)">
        <path fill="#2f2258"
            d="M1579.39 1027.71c-1.58-3.78-2.61-20.27-2.39-24.16.69-11.717 1.22-23.44 1.94-35.15 2.15-35.004-4.86-88.491 33.62-104.218 11.41-4.666 23.78-6.207 36-7.021 26.13-1.742 67.28.834 84.96 23.368 11.24 14.325 15.38 89.823 16.84 132.831.6 17.82.75 30.06.75 30.06s-114.95 57.79-171.72-15.71Z"
            transform="matrix(1.42389 0 0 1.30493 -867.509 -304.984)" />
        <path fill="#fff"
            d="M1436.9 903.089c-1.36-1.247-5.25 1.327-5.69 2.629-.73 2.138 2.75 3.531 4.19 4.043 5.9 2.101 13.73 2.909 19.93 2.531 1.52-.093 7.84-1.667 5.06-4.454-.01-.536 2.72 2.208 2.91 2.497 1.54 2.315 2.8 4.947 3.44 7.656 1.86 7.899 2.08 16.565 1.62 24.627-.44 7.771-1.65 15.645-3.68 23.162-1.66 6.127-4.02 12.047-5.38 18.255-2.1 9.502-2.8 19.205-2.1 28.905.07 1-.53 3.24-.69 4.17-.8 4.33-1.8 8.64-3.03 12.87-2.25 7.67-5.17 15.72-11.06 21.4-10.97 10.56-31.94 11.62-43.62 1.56-18.65-16.05-3.98-43.56-2.24-63.258 1.56-17.621-4.25-34.609-5.69-52.032-1.36-16.469.53-37.009 10.55-50.831 5.34-7.361 13.57-13.126 21.2-18.026-.05.038 1.07 1.253 1.21 1.435.71.908 1.19 1.97 1.78 2.954 2.01 3.378 4.05 6.653 5.2 10.455 2.57 8.56-1.57 17.998-3.94 26.067-5.4 18.308-11.72 37.161-9.49 56.46.54 4.671 1.44 9.545 2.96 14.003.39 1.121 1.08 3.5 2.45 3.886.83.236.24-2.352.17-2.658-.67-2.862-2.48-5.22-3.8-7.79-3.35-6.551-5.09-13.935-4.83-21.298.36-9.804 5.51-17.601 8.83-26.508 2.78-7.473 3.83-15.315 6.3-22.812.36-1.11 1-2.467 2-3.148 1.79-1.228 4.92.393 5.44 3.25Z" />
        <path fill="#fff"
            d="M1446.22 1076.72c3.26-12.05 7.64-59.19 6.96-71.34-1.17-20.793-2.43-41.524.58-62.228 1.27-8.719 3.31-17.548 7.02-25.58.78-1.701 2.5-6.362 4.83-6.622 2.02-.227 3.5 3.357 4.31 4.638 3.57 5.617 6.74 11.469 10.47 16.98 5.54 8.202 12.89-2.365 22.53-.068 15.6 3.717-1.33 14.349 5.06 27.036 3.86 7.648-5.94 13.309-.9 23.44 1.37 2.758 7.65 14.957 3.59 14.238-6.03-1.067-8.65-10.992-9.67-15.796-3.44-16.234 10.63-17.202 12.59-33.342 1.75-14.436 9.68-9.147 11.84-23.531 2.01-13.364 5.11-26.535 7.02-39.917 1.27-8.93-.59-24.833 8.08-30.618 4.49-2.994 10.26-1.663 15.21-.989 10.43 1.42 36.91 1.205 47.23 3.279 5.39 1.084 10.74 2.71 15.29 5.903 6.28 4.401 9.7 12.168 11.96 19.242 5.42 16.932 1.03 38.311 3.12 55.817 2.76 23.085 8.2 43.966 8.77 67.408.09 3.35.05 6.72-.06 10.08-.38 11.99-12.91 32.52-26.85 37.56-1.36.49-2.82.77-4.28.7-9.96-.54-8.32-10.46-14.17-15.96-6.09-5.73-16.33-2.91-21.11-10.58-3.96-6.35 5.35-15.98 7.02-21.94 3.24-11.489-1.2-22.27-.97-33.78.24-11.299 5.96-21.465 8.06-32.392.35-1.839 1.87-10.348-1.18-11.111-3.32-.831-5.08 5.522-5.63 7.597-2.5 9.512-.06 19.303 1.06 28.807 1.55 13.161-3.1 24.428-6.39 36.889-2.25 8.48 4.57 68.59-.13 76.18-6.92 11.19-30.21 8.1-41.84 8.07-12.36-.03-10.13-.2-33.75 0-13.4.11-44.71-.33-55.67-8.07Z" />
        <path fill="#a6a27c"
            d="M1439.94 848.574c-.17 1.899.85 4.256 1.36 6.043 1.42 4.96 3.05 9.868 5.6 14.372 9.77 17.237 28.36 34.118 48.33 37.812 14.13 2.613 34.59-3.247 37.11-19.78 1.1-7.216-.82-14.857-2.3-21.883-2.07-9.869-3.78-20.047-6.89-29.654-1.67-5.191-3.36-12.036-7.93-15.513-7.42-5.653-16.53-1.337-24.8-3.3-6.66-1.579-11.7-8.369-18.1-10.956-12.96-5.246-34.51 5.719-32.38 42.859Z" />
        <clipPath id="a">
            <path
                d="M1439.94 848.574c-.17 1.899.85 4.256 1.36 6.043 1.42 4.96 3.05 9.868 5.6 14.372 9.77 17.237 28.36 34.118 48.33 37.812 14.13 2.613 34.59-3.247 37.11-19.78 1.1-7.216-.82-14.857-2.3-21.883-2.07-9.869-3.78-20.047-6.89-29.654-1.67-5.191-3.36-12.036-7.93-15.513-7.42-5.653-16.53-1.337-24.8-3.3-6.66-1.579-11.7-8.369-18.1-10.956-12.96-5.246-34.51 5.719-32.38 42.859Z" />
        </clipPath>
        <g clip-path="url(#a)">
            <path fill="#656245"
                d="M1512.9 809.511c-.83-.333-.51 1.724-.89 2.533-.74 1.576-1.53 3.092-2.58 4.49-2.98 3.964-7.95 8.165-12.76 9.516-12.73 3.576-37.25-3.274-41.72 14.329-.6 2.378-.67 4.929-.59 7.367.12 3.573.7 7.031 1.71 10.459 1.38 4.684 3.72 8.932 6.06 13.214 16.21 29.567 45.39 36.048 45.39 36.048 1.44 12.91-80.12-12.407-84.9-54.846-3.44-30.612 21.95-65.441 53.93-66.263 6.2-.159 30.57 21.027 36.35 23.153Z" />
        </g>
        <path fill="#0d0d0d"
            d="M1455.39 810.542c-.99.624-3.88 5.487-4.4 6.454-1.81 3.323-2.96 7.047-3.98 10.668-1.08 3.797-1.86 7.648-2.71 11.499-.66 2.992-1.36 5.964-2.27 8.891-2.48 8.008-6.93 18.492-14.38 23.185-3.54 2.23-7.7 4.07-11.73 1.936-2.77-1.474-3.73-4.365-4.1-7.299-.67-5.291.43-10.388-1.38-15.57-2.58-7.401-7.98-13.289-9.87-21.031-.85-3.488-1.26-7.099-1.29-10.688-.03-2.735.16-5.483.54-8.192 1.92-13.85 10.75-32.229 27.4-30.351-.25.128.05-1.834.08-2.002.37-1.819 1.04-3.567 1.91-5.204 2.51-4.706 6.1-8.845 10.18-12.246 11.52-9.597 28.38-10.764 42.21-6.12 17.05 5.726 30.67 17.76 38.75 33.774 5.77 11.436 8.5 24.959 16.95 34.896 7.71 9.074 21.82 13.964 26.33 25.665 1.06 2.756 2.17 2.35 2.17 5.24-.47.002-16.82-1.299-21.43-.676-4.11.555-6.81 2.52-10.24 4.568-1.38.828-3.36 1.614-4.84.601-2.73-1.872-2.59-7.536-3.13-10.396-1.34-7.213-3.34-14.914-7.04-21.308-1.54-2.66-3.55-5.078-6.22-6.659-7.07-4.185-16.53-1.591-24.21-4.006-7.03-2.212-12.63-7.431-19.97-8.932-4.53-.926-9.99-.111-13.33 3.303Z" />
        <path fill="#a6a27c"
            d="M1460.3 907.082c-.4-.479 1.32-7.543 1.51-7.969 1.36-3.099 3.01-6.84 2.4-10.3-.73-4.107-3.82-7.817-5.91-11.316-2.74-4.587-4.63-9.632-4.71-15.034-.08-6.451 3.16-12.421 6.21-17.89 2.11-3.785 4.71-8.143 4.42-12.657-.42-6.764-7.3-5.23-10.32-1.287-5.5 7.206-6.73 17.107-10.67 25.175-.76 1.558-.87 4.867-.69 6.419.08.723.73 2.141 1.44.981 1.83-2.995-1.5-8.129-2.43-10.93-1.76-5.345-1.36-10.621-.41-16.099 1.19-6.836 4.21-13.426 4.86-20.319.19-2.022.22-6.026-2.38-6.693-3.65-.938-6.57 5.788-7.57 8.124-3.99 9.34-6.87 20.459-5.99 30.711.27 3.108.72 6.317 2.03 9.18.29.63 1.03 2.374 1.9 2.437.78.057.34-1.711.25-2.009-.61-2.115-1.9-3.988-2.99-5.873-3.12-5.376-5.13-9.406-4.91-15.829.33-9.239 4.27-17.735 6.75-26.499.57-2.044 2.26-7.46.11-9.183-1.86-1.496-4.92 2.737-5.77 3.873-4.2 5.63-6.33 13.394-7.86 20.141-1.5 6.596-2.27 13.458-.82 20.139.31 1.459.17 3.12.93 4.42.15.238 1.18 1.643 1.53 1.152 1.22-1.717-.75-5.615-1.24-7.254-1.63-5.392-2.99-11.024-2.21-16.69.73-5.318 3.66-9.676 4.94-14.775.72-2.891.06-5.618-3.1-3.209-4.89 3.725-6.41 11.473-7.38 17.116-1.54 8.963-.65 18.684 2.73 27.142 4.04 10.129 10.98 18.811 14.38 29.243 1.79 5.506 3.09 11.46 3.99 17.18.4 2.491-.32 6.146 1.08 8.327 1.49 2.323 3.97 3.209 6.51 3.939 5.56 1.591 15.42 1.941 19.39-3.884Z" />
        <clipPath id="b">
            <path
                d="M1460.3 907.082c-.4-.479 1.32-7.543 1.51-7.969 1.36-3.099 3.01-6.84 2.4-10.3-.73-4.107-3.82-7.817-5.91-11.316-2.74-4.587-4.63-9.632-4.71-15.034-.08-6.451 3.16-12.421 6.21-17.89 2.11-3.785 4.71-8.143 4.42-12.657-.42-6.764-7.3-5.23-10.32-1.287-5.5 7.206-6.73 17.107-10.67 25.175-.76 1.558-.87 4.867-.69 6.419.08.723.73 2.141 1.44.981 1.83-2.995-1.5-8.129-2.43-10.93-1.76-5.345-1.36-10.621-.41-16.099 1.19-6.836 4.21-13.426 4.86-20.319.19-2.022.22-6.026-2.38-6.693-3.65-.938-6.57 5.788-7.57 8.124-3.99 9.34-6.87 20.459-5.99 30.711.27 3.108.72 6.317 2.03 9.18.29.63 1.03 2.374 1.9 2.437.78.057.34-1.711.25-2.009-.61-2.115-1.9-3.988-2.99-5.873-3.12-5.376-5.13-9.406-4.91-15.829.33-9.239 4.27-17.735 6.75-26.499.57-2.044 2.26-7.46.11-9.183-1.86-1.496-4.92 2.737-5.77 3.873-4.2 5.63-6.33 13.394-7.86 20.141-1.5 6.596-2.27 13.458-.82 20.139.31 1.459.17 3.12.93 4.42.15.238 1.18 1.643 1.53 1.152 1.22-1.717-.75-5.615-1.24-7.254-1.63-5.392-2.99-11.024-2.21-16.69.73-5.318 3.66-9.676 4.94-14.775.72-2.891.06-5.618-3.1-3.209-4.89 3.725-6.41 11.473-7.38 17.116-1.54 8.963-.65 18.684 2.73 27.142 4.04 10.129 10.98 18.811 14.38 29.243 1.79 5.506 3.09 11.46 3.99 17.18.4 2.491-.32 6.146 1.08 8.327 1.49 2.323 3.97 3.209 6.51 3.939 5.56 1.591 15.42 1.941 19.39-3.884Z" />
        </clipPath>
        <g clip-path="url(#b)">
            <path fill="#656245"
                d="M1462.81 818.704c-.04-.098-2.97 6.256-2.88 6.358.42.509.8 1.046 1.12 1.626.9 1.62 1.69 3.584 1.73 5.464.09 4.018-4.8 8.653-6.74 11.857-5.42 8.924-7.97 17.748-5.04 28.108 1.91 6.74 6.65 12.892 6.51 20.123-.19 9.281-9.01 15.08-17.86 12.764-1.88-.493-3.64-1.489-5.22-2.608-.77-.547-1.82-1.379-2.83-.964-2.15.881-.92 3.992-.27 5.443 1.99 4.451 5.9 7.6 10.74 8.384 3.54.572 7.22.189 10.7-.578 2.79-.618 5.51-1.561 8.06-2.858 14.83-7.534 12.92-25.392 11.91-39.446-.24-3.265-.44-6.531-.65-9.797-.28-4.211-.53-8.421-.63-12.64-.05-2.202-.06-4.403-.07-6.605-.01-1.744-.01-3.488-.02-5.232-.06-6.481.18-18.323-8.56-19.399ZM1442.86 803.844c-.03-.103-2.39 4.014-2.36 4.029.39.225.73.535.99.912.69 1.015.86 2.275 1.01 3.465.43 3.59-.94 6.882-1.95 10.265-2.38 7.988-4.56 16.25-3.16 24.633.56 3.396 2.37 6.218 3.21 9.489.53 2.055.65 4.225.76 6.338.03.636 0 1.269-.08 1.901-.01.061-.15.989-.06.986.07-.001.45-.759.52-.84.63-.803 1.65-1.484 1.95-2.495.52-1.724-.25-3.694-.46-5.418-.25-2.025.02-4.071.18-6.094.58-7.129 1.79-14.185 3.1-21.212.93-4.971 2.11-9.949 2.44-15.008.28-4.195-.22-11.639-6.09-10.951ZM1431.18 795.445c-.01-.109-1.98 4.492-1.94 4.512.42.252.7.71.93 1.129.58 1.072.92 2.483.85 3.7-.22 3.573-2.28 7.148-3.55 10.426-3.16 8.124-4.77 17.591-2.62 26.188.9 3.573 2.7 6.652 4.12 10.01 1.03 2.468 1.41 5.396 2.7 7.718.36.668 1.39 1.917 2.28 1.863.77-.047.09-1.733-.02-2.031-.74-2.178-1.57-4.342-2.37-6.504-.97-2.66-2.18-5.37-2.73-8.153-.58-2.87-.45-5.896-.12-8.785 1.23-10.951 7.83-20.456 9.43-31.291.56-3.767-.07-9.007-4.88-9.119-.7-.017-1.41.136-2.08.337ZM1423.29 805.395c.55-.102-4.06-1.098-2.77 3.025.73 2.342-.38 4.501-1.17 6.754-2.98 8.487-4.04 18.502-2.17 27.362.45 2.156 1.11 4.329 2.19 6.263.24.435.89 1.555 1.49 1.573.75.021.27-1.036.18-1.396-.42-1.538-.87-3.08-1.22-4.633-.46-2.051-.65-4.157-.99-6.232-.32-1.991-.86-4.035-.79-6.064.2-5.787 2.11-11.512 4.11-16.905 1.1-2.994 2.87-6.642 1.14-9.747Z" />
        </g>
        <path fill="#a6a27c"
            d="M1467.36 899.64c-.47 7.401 5.28 12.508 8.8 18.311 2.85 4.711 5.1 10.242 11.14 11.344 6.94 1.267 13.69-3.786 20.75-2.025 2.33.581 4.46 2.164 5.25 4.485.3.87.72 4.442 1.94 4.673.66.123 1.28-.851 1.57-1.28 1.13-1.664 1.7-3.494 2.16-5.433 1.21-5.065 2.43-10.112 4.06-15.063.94-2.862 2.62-5.974 2.93-8.991.39-3.861-4.87.777-5.91 1.504-.48.336-.95.677-1.42 1.019-.68.493-1.36.975-2.07 1.431-6.09 3.938-12.83 5.858-20.08 4.633-5.95-1.006-12.04-3.697-16.72-7.527-2.52-2.068-4.67-4.584-6.96-6.904-1.2-1.216-4.31-4.033-5.44-.177Z" />
        <clipPath id="c">
            <path
                d="M1467.36 899.64c-.47 7.401 5.28 12.508 8.8 18.311 2.85 4.711 5.1 10.242 11.14 11.344 6.94 1.267 13.69-3.786 20.75-2.025 2.33.581 4.46 2.164 5.25 4.485.3.87.72 4.442 1.94 4.673.66.123 1.28-.851 1.57-1.28 1.13-1.664 1.7-3.494 2.16-5.433 1.21-5.065 2.43-10.112 4.06-15.063.94-2.862 2.62-5.974 2.93-8.991.39-3.861-4.87.777-5.91 1.504-.48.336-.95.677-1.42 1.019-.68.493-1.36.975-2.07 1.431-6.09 3.938-12.83 5.858-20.08 4.633-5.95-1.006-12.04-3.697-16.72-7.527-2.52-2.068-4.67-4.584-6.96-6.904-1.2-1.216-4.31-4.033-5.44-.177Z" />
        </clipPath>
        <g clip-path="url(#c)">
            <path fill="#656245"
                d="M1465.85 897.574c.01-.021.07.522.08.645.05.481.14.945.25 1.415.35 1.471.76 2.978 1.33 4.376 1.67 4.054 4.28 7.869 7.91 10.376 4.88 3.371 11.5 4.567 17.33 4.667 4.63.079 9.19-.705 13.6 1.206 3.39 1.469 6.37 3.982 8.21 7.206 1.01 1.788 1.47 5.153 3.35 6.247 2.51 1.461 4.94-2.369 5.89-4.098 1.88-3.416 3.11-7.19 3.97-10.984.49-2.145.85-4.324 1.05-6.514.15-1.552.27-3.119.23-4.678-.02-.929-.1-1.853-.25-2.769-.09-.542-.21-1.082-.43-1.588-1.53-3.565-4.53-.119-6.52 1.117-2.26 1.391-4.69 2.564-7.16 3.519-6.36 2.465-12.86 2.96-19.48 1.291-6.07-1.529-11.98-3.985-17.3-7.285-2.88-1.784-5.32-4.433-8.42-5.839-3.13-1.421-4.02-1.356-3.64 1.69Z" />
        </g>
    </g>
    <path fill="#2f2258"
        d="M1726.79 971.622c0-3.232-1.67-6.735-4.5-9.444-2.83-2.71-6.48-4.307-9.86-4.307h-196.19c-4.71 0-7.93 3.088-7.93 7.598v135.121c0 3.23 1.67 6.73 4.5 9.44 2.82 2.71 6.48 4.31 9.86 4.31h196.19c4.71 0 7.93-3.09 7.93-7.6V971.622Z"
        transform="matrix(7.0349 0 -2.11724 7.0349 -6074.611 -3114.9)" />
    <path fill="#3b378c"
        d="M1726.79 982.056c0-5.685-1.55-11.846-4.19-16.611-2.65-4.765-6.06-7.574-9.21-7.574h-197.68c-4.39 0-7.4 5.431-7.4 13.364v118.915c0 5.69 1.55 11.85 4.19 16.62 2.64 4.76 6.06 7.57 9.2 7.57h197.69c4.39 0 7.4-5.43 7.4-13.36V982.056Z"
        transform="matrix(-7.0349 0 1.12306 3.73155 13401.951 673.832)" />
    <circle cx="1756.19" cy="932.28" r="61.265" fill="#656245"
        transform="translate(-6293.287 -3686.17) scale(6.02941)" />
    <path fill="#fff"
        d="M1808.19 1089.48c.92-.91 2.16-1.43 3.46-1.43 1.3 0 2.54.52 3.46 1.43.91.92 1.43 2.16 1.43 3.46 0 1.3-.52 2.54-1.43 3.45l-6.54 6.54 6.59 6.59c.9.91 1.41 2.13 1.41 3.4 0 1.28-.51 2.5-1.41 3.4-.04.04-.07.08-.11.12-.9.9-2.12 1.4-3.4 1.4-1.27 0-2.5-.5-3.4-1.4-2.9-2.9-6.59-6.6-6.59-6.6s-3.7 3.7-6.59 6.6c-.91.9-2.13 1.4-3.41 1.4-1.27 0-2.49-.5-3.39-1.4l-.12-.12a4.831 4.831 0 0 1 0-6.8c2.9-2.89 6.6-6.59 6.6-6.59s-3.69-3.69-6.59-6.58a4.828 4.828 0 0 1 0-6.82c.03-.03.07-.06.1-.1a4.816 4.816 0 0 1 6.81 0l6.59 6.59s3.65-3.65 6.53-6.54Z"
        transform="translate(-19291.24 -12515.983) scale(13.10225)" />
    <path fill="#a5a17b"
        d="M1505.92 689.019c-1.05.645-2.1 1.314-3.13 2.004-9.38-2.954-18.69-6.284-28.53-8.394-5.37-1.15-12.22-1.918-18.12-.515-4.38 1.04-8.25 3.238-10.84 7.145a14.08 14.08 0 0 0-1.9 4.187c-3.78-.923-7.65-1.758-11.53-2.209-3.6-.418-7.23-.505-10.82-.051-2.62.33-5.39 1.113-7.58 2.601-1.65 1.123-2.99 2.638-3.79 4.631-1 2.494-1.11 5.228-.65 7.964.61 3.626 2.23 7.259 3.75 10.175 3.45 6.627 9.29 12.622 16.18 16.631a40.283 40.283 0 0 0 6.91 3.196 68.481 68.481 0 0 0-5.77 6.023c-2.61 3.108-4.9 6.475-6.69 10.155-.57 1.19-1.79 3.269-2.33 5.136-.35 1.171-.44 2.285-.2 3.183a1.695 1.695 0 1 0 3.28-.854c-.14-.546.12-1.238.4-1.961.57-1.502 1.5-3.039 1.96-3.979 1.69-3.401 3.85-6.505 6.3-9.368 2.2-2.565 4.64-4.935 7.2-7.149 3.91.869 7.92 1.049 11.86.38 5.88-1.001 10.96-3.666 15.54-7.174.21-.161.43-.324.63-.489.9.562 1.82 1.103 2.74 1.624 8.01 4.515 16.84 7.495 25.48 8.137 5.38.399 9.07-.265 11.26-1.444 2.51-1.349 3.5-3.341 3.32-5.592-.13-1.544-.9-3.311-2.42-5.102-2.77-3.26-8.2-6.846-15.84-9.537a42.052 42.052 0 0 0-10.2-2.239c.8-.846 1.59-1.679 2.39-2.491 2.32-2.371 4.69-4.705 7.14-6.96 7.61.748 15.28 1.484 22.86 2.636 1.17.179 2.35.368 3.53.571.52 1.55.98 3.13 1.36 4.737 1.54 6.405 1.1 14.037 2.45 20.872.64 3.234 1.67 6.296 3.4 9.012 2.89 4.541 7.16 6.328 11.7 6.317 6.38-.016 13.32-3.772 17.32-8.343.81-.926 1.55-1.914 2.22-2.953a20.99 20.99 0 0 0 1.75-3.319c2.53-6.073 1.27-10.926-1.83-14.82-4.2-5.266-12.14-8.681-18.44-10.828-5.85-1.996-11.85-3.452-17.93-4.583a58.729 58.729 0 0 0-2.52-5.378c5.72 1.215 11.57 1.982 17.68 2.005 4.77.018 9.79-.331 14.57-1.464 3.3-.784 6.49-1.945 9.42-3.602 1.94-1.101 4.61-3.048 5.89-5.293 1.23-2.158 1.45-4.558-.27-7.019-.88-1.268-2.11-2.259-3.5-3.026-1.7-.933-3.68-1.523-5.39-1.998-4.29-1.188-8.74-1.698-13.22-1.713-4.38-.015-8.79.446-13.05 1.194-7.69 1.353-14.75 4.085-21.3 7.755-3.59-4.033-7.63-7.675-11.98-10.868-7.49-5.495-19.78-11.055-30.71-10.991-7.73.046-14.78 2.845-19.16 10.244a1.246 1.246 0 0 0 2.14 1.276c3.92-6.502 10.2-8.867 17.02-8.85 10.35.025 21.92 5.424 28.96 10.684 4 2.98 7.72 6.357 11.03 10.081Zm16.03 21.535c.34 1.085.65 2.184.92 3.295 1.59 6.428 1.22 14.104 2.64 20.966.57 2.796 1.46 5.45 2.97 7.791 2.74 4.229 7.1 5.154 11.4 4.318 4.54-.881 9.03-3.67 11.81-6.902.69-.793 1.32-1.636 1.88-2.523.55-.872 1.02-1.787 1.41-2.74 1.83-4.486.95-8.06-1.36-10.91-3.8-4.691-11.02-7.546-16.68-9.431-4.9-1.635-9.91-2.877-14.99-3.864Zm-43.19 9.475c-2.26 2.412-4.56 4.827-6.99 7.069.43.263.87.522 1.32.776 7.38 4.234 15.53 7.087 23.52 7.742 4.22.346 7.14.047 8.86-.864.68-.359 1.1-.797 1.06-1.405-.1-1.231-1.12-2.581-2.71-4.045-2.69-2.471-7-4.976-12.63-7.006-4.22-1.522-8.37-2.227-12.43-2.267Zm-18.91 4.345c-5 2.283-9.8 5.314-14.32 8.741 1.82.096 3.65-.002 5.46-.319 4.68-.821 8.73-2.921 12.42-5.645a76.415 76.415 0 0 1-3.56-2.777Zm-16.91-26.195c-3.81-.918-7.7-1.76-11.61-2.189-3.22-.354-6.45-.423-9.66.003-1.58.21-3.26.611-4.69 1.375-1.19.635-2.21 1.535-2.73 2.868-.66 1.664-.65 3.49-.33 5.31.54 3.106 1.99 6.195 3.3 8.688 3.06 5.806 8.23 11.03 14.31 14.521 2.82 1.623 5.84 2.873 8.95 3.617 5.07-4.173 10.5-7.925 16.21-10.783a66.743 66.743 0 0 1-6.36-6.836c-3.05-3.794-6.17-8.98-7.12-14.203-.14-.791-.23-1.582-.27-2.371Zm27.67 22.638c-1.93.386-3.84.909-5.72 1.55.75.584 1.51 1.155 2.29 1.71a83.383 83.383 0 0 0 3.43-3.26Zm-22.6-21.397c.01.09.02.179.04.268.78 4.44 3.48 8.821 6.05 12.058a62.248 62.248 0 0 0 7.31 7.72 51.505 51.505 0 0 1 7.62-2.39c1.99-.454 4.01-.777 6.05-.952 1.97-2.129 3.9-4.255 5.83-6.249a208.18 208.18 0 0 1 3.9-3.907c-1.48-.155-2.96-.317-4.44-.487-5.82-.673-11.56-1.604-17.26-2.718-5.05-.987-10.07-2.118-15.1-3.343Zm55.91-2.541a109.46 109.46 0 0 0-7.55 5.863c6.36.674 12.74 1.393 19.05 2.398l1.11.18a59.741 59.741 0 0 0-2.89-5.68c-3.27-.817-6.5-1.759-9.72-2.761Zm-6.4-2.061c-7.98-2.62-15.97-5.346-24.35-7.182-4.7-1.03-10.7-1.817-15.88-.616-3.14.73-5.98 2.207-7.86 4.999a8.934 8.934 0 0 0-1.22 2.632c5.26 1.327 10.51 2.554 15.79 3.62 5.58 1.126 11.2 2.074 16.9 2.769 2.7.331 5.42.632 8.14.924 2.73-2.501 5.56-4.902 8.48-7.146Zm16.42-.577c1.06.269 2.12.525 3.19.766 5.92 1.338 11.99 2.22 18.35 2.226 3.65.004 7.45-.216 11.15-.9 3.57-.659 7.03-1.75 10.14-3.52 1.07-.612 2.53-1.555 3.46-2.723.42-.519.81-1.099.37-1.726-.53-.763-1.37-1.256-2.25-1.662-1.18-.547-2.48-.907-3.62-1.223-3.82-1.057-7.79-1.497-11.77-1.509-4.07-.012-8.14.421-12.09 1.116-6.73 1.183-12.94 3.532-18.72 6.665.28.374.56.751.84 1.131.32.449.64.902.95 1.359Z"
        transform="translate(-9940.84 -4224.74) scale(8.10221)" />
    <path fill="#d7d8ac"
        d="M1750.27 996.425c-2.97-.873-8.27.533-9.25.866-8.03 2.739-18.4 10.439-12.42 19.599 5.09 7.8 14.62 12.4 22.7 16.36 22.83 11.21 47.91 16.01 73.01 10.48 11.97-2.63 29.16-8.97 32.97-22.33 1.33-4.66-1.91-9.18-6.87-7-5.7 2.51-10.23 8.59-15.15 12.34-6.59 5.02-15.44 7.81-23.65 8.3-24.39 1.45-34.78-30.81-61.34-38.615Z"
        transform="matrix(8.10221 0 0 9.69883 -9940.84 -5815.196)" />
</svg>