<svg width="360" height="360" xmlns="http://www.w3.org/2000/svg"><svg xmlns="http://www.w3.org/2000/svg" viewBox="0 0 3800 3000" width="360" height="360"><path fill="#fff4e3" d="M818.15 2706.24h2418.48s311.76-631.56-103.92-1155.76c-415.68-524.21-1794.97-1149.51-2087.83-399.52-292.87 750-727.44 1036.03-226.73 1555.28" class="svgShape colorf4f6f9-0 selectable"/><path fill="#ffa45c" d="M977.14 2716.2c-50.28-173.1 129.25-191.83 122.37-275.87-7.17-88.24-21.57-138.64 126.02-286.23 99.3-99.3 90.26-215.17 73.74-280.42-78.59-28.23-19.09 227.19-116.93 194-106.22-36.01-163.85-133.24-185.42-46.82-21.62 86.42 116.98 208.65 34.19 255.57-82.83 46.87-111.62-131.37-165.62-77.33-54.05 53.99 81.02 174.61 77.38 271.84-3.59 97.23-207.03-63.04-239.41 73.79-22.77 96.07 103.58 148.66 180.87 171.47z" class="svgShape color838bc5-1 selectable"/><path fill="#fe9400" d="M1188.15 2716.2c18.35-30.44 51.42-104.38-18.43-158.84-90.01-70.21 136.83-120.61 165.67-210.67 28.79-90.01-97.23-113.39-68.44-154.81s169.25-216.03 55.81-304.26c-8.94-6.97-16.72-11.52-23.49-13.94 16.52 65.26 25.56 181.12-73.74 280.42-147.58 147.59-133.19 197.99-126.02 286.23 6.89 84.05-172.65 102.77-122.37 275.87z" class="svgShape color5361a0-2 selectable"/><path fill="#f6e1c1" d="M915.87 2589.05c15.05 6.23 35.5 15.7 40.85 26.43.15.29.43.44.63.69 1.81 43.72-2.96 80.29-6.39 100.03h9.12c6.54-38.6 16.83-133.33-18.19-224.05-.04-.19-.01-.38-.08-.56-4.44-12.66 12.23-49.97 26.94-76.88 33.08-11.9 55.62-23.14 82.74-53.28 28.83-32.04-29.9-97.19-65.15-64.08-28.71 26.97-26.47 89.34-24.65 111.56-8.4 15.18-22.77 43.18-27.72 64.72-9.35-20.28-21.09-40.16-35.96-58.92-13.58-17.13-24.06-34.1-32.18-50.69-4.29-21.02-9.45-38.28-19.38-56.13-10.32-49.87-1.58-91.96 6.67-116.9 25.64-13 43.52-25.46 63.38-53.31 22.37-31.34-36.34-83.25-64.29-50.31-25.58 30.16-11.99 95.93-9.51 106.85-6.79 22.65-12.89 55.81-8.43 94.77-2.34-3.19-4.72-6.39-7.44-9.72-27.25-33.4-100.62 14.68-73.29 54.57 22.79 33.27 87.21 40.17 107.98 41.54 7.82 14.76 17.44 29.77 29.44 44.9 44.88 56.62 61.26 123.74 65.54 181.18-9.89-8.75-25.05-15.71-37.42-20.81-17.96-29.89-33.35-49.6-68-70.26-37.02-22.08-89.55 48.17-50.24 76.33 32.49 23.26 94.44 8.26 115.03 2.33m111.79 127.15h348.53c11.59-22.53 24.67-70.96-47.36-108.95-54.96-28.99 40.87-82.43 10.96-139.03s-91.37 16.02-117.24-34.18-80.34-163.4-102.76-92.92c-22.43 70.49 86.51 114.28 14.95 166.61s-160.2 79.03-72.62 98.26c82.16 18.03-55.9 48.47-34.46 110.21" class="svgShape colorc1e7f6-3 selectable"/><path fill="#fe9400" d="M1607.82 2716.2c26.93-69.97-130.2-104.3-37.82-124.58 97.7-21.45-1.19-51.23-81.02-109.61s41.7-107.23 16.68-185.87-85.79 47.66-114.65 103.66-97.43-25.02-130.8 38.13c-33.36 63.15 73.54 122.77 12.23 155.11-82.13 43.32-65.09 98.8-51.99 123.17h387.37z" class="svgShape color5361a0-4 selectable"/><path fill="#ffa45c" d="M1394.39 2655.49c4.83 7.8 11.06 18.86 9.97 25.52-.03.18.05.34.06.52-9.52 14.45-19.36 26.2-27.18 34.67h6.84c17.68-19.82 42.98-53.91 54.1-96.44.04-.1.12-.18.15-.28 2.14-7.25 22.04-18.81 37.61-26.27 19.03 5.45 33.04 7.73 55.35 2.88 23.72-5.15 18.32-54.26-8.68-50.73-22 2.88-41.5 32.12-47.98 42.87-8.83 4.17-24.62 12.24-33.96 20.46 2.4-12.35 3.58-25.3 2.95-38.76-.34-7.46-.14-14.48.43-21.17 16.95 4.57 30.52 6.22 51.14 1.74 23.72-5.15 18.32-54.26-8.69-50.73-14.41 1.89-27.72 15.06-37.02 26.96 2.8-7.38 4.78-14.53 5.72-22.59 11.7-26.19 29.54-42.55 41.52-51.23 16 2.5 28.27 2.68 46.51-3.5 20.54-6.96 10.79-50.01-12.82-44.15-21.62 5.36-37.05 39.9-39.51 45.71-10.56 8.11-24.26 21.27-35.04 40.54-.02-2.22-.05-4.47-.2-6.89-1.46-24.23-50.81-26.41-51.46.82-.54 22.71 26.64 47.06 35.68 54.52-1.29 9.31-1.83 19.35-1.33 30.21.13 2.84.16 5.65.14 8.45-1.16-7.98-3.5-16.18-7.69-25.84-9.65-22.27-56.78-7.46-48.08 18.35 6.99 20.75 38.61 34.09 50.78 38.55 0 0 2.79 16.11-24.83 64.87-1.64-7.25-6.28-15.43-10.25-21.83 1.63-19.57 1.08-33.64-7.95-54.49-9.65-22.28-56.78-7.46-48.08 18.35 7.19 21.31 40.44 34.84 51.8 38.91m1275.8 60.71c-50.28-173.1 129.25-191.83 122.37-275.87-7.17-88.24-21.57-138.64 126.02-286.23 99.3-99.3 90.26-215.17 73.74-280.42-78.59-28.23-19.09 227.19-116.93 194-106.22-36.01-163.85-133.24-185.42-46.82-21.62 86.42 116.98 208.65 34.19 255.57-82.83 46.87-111.62-131.37-165.62-77.33-54.05 53.99 81.02 174.61 77.38 271.84-3.59 97.23-207.03-63.04-239.41 73.79-22.77 96.07 103.58 148.66 180.87 171.47z" class="svgShape color838bc5-5 selectable"/><path fill="#fe9400" d="M2881.2 2716.2c18.35-30.44 51.42-104.38-18.43-158.84-90.01-70.21 136.83-120.61 165.67-210.67 28.79-90.01-97.23-113.39-68.44-154.81s169.25-216.03 55.81-304.26c-8.94-6.97-16.72-11.52-23.49-13.94 16.52 65.26 25.56 181.12-73.74 280.42-147.58 147.59-133.19 197.99-126.02 286.23 6.89 84.05-172.65 102.77-122.37 275.87z" class="svgShape color5361a0-6 selectable"/><path fill="#f6e1c1" d="M2608.92 2589.05c15.05 6.23 35.5 15.7 40.85 26.43.15.29.43.44.63.69 1.81 43.72-2.96 80.29-6.39 100.03h9.12c6.54-38.6 16.83-133.33-18.19-224.05-.04-.19-.01-.38-.08-.56-4.44-12.66 12.23-49.97 26.94-76.88 33.08-11.9 55.62-23.14 82.74-53.28 28.83-32.04-29.91-97.19-65.15-64.08-28.71 26.97-26.47 89.34-24.65 111.56-8.4 15.18-22.77 43.18-27.72 64.72-9.35-20.28-21.09-40.16-35.96-58.92-13.58-17.13-24.06-34.1-32.18-50.69-4.29-21.02-9.45-38.28-19.38-56.13-10.32-49.87-1.58-91.96 6.67-116.9 25.64-13 43.52-25.46 63.38-53.31 22.37-31.34-36.34-83.25-64.29-50.31-25.58 30.16-11.99 95.93-9.51 106.85-6.79 22.65-12.89 55.81-8.43 94.77-2.34-3.19-4.72-6.39-7.44-9.72-27.25-33.4-100.62 14.68-73.29 54.57 22.79 33.27 87.21 40.17 107.98 41.54 7.82 14.76 17.44 29.77 29.44 44.9 44.89 56.62 61.26 123.74 65.54 181.18-9.89-8.75-25.05-15.71-37.42-20.81-17.96-29.89-33.35-49.6-68-70.26-37.02-22.08-89.55 48.17-50.24 76.33 32.49 23.26 94.44 8.26 115.03 2.33m111.79 127.15h348.53c11.59-22.53 24.67-70.96-47.36-108.95-54.96-28.99 40.87-82.43 10.96-139.03s-91.37 16.02-117.24-34.18-80.34-163.4-102.76-92.92c-22.43 70.49 86.51 114.28 14.95 166.61s-160.2 79.03-72.62 98.26c82.16 18.03-55.9 48.47-34.46 110.21" class="svgShape colorc1e7f6-7 selectable"/><path fill="#fe9400" d="M3300.87 2716.2c26.93-69.97-130.2-104.3-37.82-124.58 97.7-21.45-1.19-51.23-81.02-109.61s41.7-107.23 16.68-185.87-85.79 47.66-114.65 103.66-97.44-25.02-130.8 38.13 73.54 122.77 12.23 155.11c-82.13 43.32-65.09 98.8-51.99 123.17h387.37z" class="svgShape color5361a0-8 selectable"/><path fill="#ffa45c" d="M3087.44 2655.49c4.83 7.8 11.06 18.86 9.97 25.52-.03.18.05.34.06.52-9.52 14.45-19.36 26.2-27.18 34.67h6.84c17.68-19.82 42.98-53.91 54.1-96.44.04-.1.12-.18.15-.28 2.14-7.25 22.04-18.81 37.61-26.27 19.03 5.45 33.04 7.73 55.35 2.88 23.72-5.15 18.32-54.26-8.68-50.73-22 2.88-41.5 32.12-47.98 42.87-8.83 4.17-24.62 12.24-33.96 20.46 2.4-12.35 3.58-25.3 2.95-38.76-.34-7.46-.14-14.48.43-21.17 16.95 4.57 30.52 6.22 51.14 1.74 23.72-5.15 18.32-54.26-8.69-50.73-14.41 1.89-27.72 15.06-37.02 26.96 2.8-7.38 4.78-14.53 5.72-22.59 11.7-26.19 29.54-42.55 41.52-51.23 16 2.5 28.27 2.68 46.51-3.5 20.54-6.96 10.79-50.01-12.82-44.15-21.62 5.36-37.05 39.9-39.51 45.71-10.56 8.11-24.26 21.27-35.04 40.54-.02-2.22-.05-4.47-.2-6.89-1.46-24.23-50.81-26.41-51.46.82-.54 22.71 26.64 47.06 35.68 54.52-1.29 9.31-1.83 19.35-1.33 30.21.13 2.84.16 5.65.14 8.45-1.16-7.98-3.5-16.18-7.69-25.84-9.65-22.27-56.78-7.46-48.08 18.35 6.99 20.75 38.61 34.09 50.78 38.55 0 0 2.79 16.11-24.83 64.87-1.64-7.25-6.28-15.43-10.25-21.83 1.63-19.57 1.08-33.64-7.95-54.49-9.65-22.28-56.78-7.46-48.08 18.35 7.19 21.31 40.44 34.84 51.8 38.91" class="svgShape color838bc5-9 selectable"/><circle cx="612.96" cy="1616.16" r="93.64" fill="#fbe7c8" transform="rotate(-16.476 613.07 1616.388)" class="svgShape colorc8d9fb-10 selectable"/><path fill="#fff" class="svgShape colorffffff-11 selectable" d="m555.633 1598.922 34.48-1.195 2.267 65.42-34.48 1.195z"/><path fill="#fff" d="m674.48 1616.09-.33.01-.38-11.27c-.2-5.98-5.22-10.66-11.2-10.46l-30.39 1.04s11.78-17.66 11.4-28.71c-.34-9.89-1.23-22.97-15.82-22.47 0 0-5.19 3.45-4.68 18.3.47 13.71-27.13 35.01-27.13 35.01l2.32 67.63s6.38 5.53 16.11 5.2l43.98-1.51c6.23-.22 11.1-5.43 10.89-11.66l-.23-6.85c3.66-.13 6.53-3.2 6.4-6.86l-.27-7.96c2.2-.07 3.92-1.92 3.84-4.11l-.39-11.49a3.98 3.98 0 0 0-4.12-3.84" class="svgShape colorffffff-12 selectable"/><path fill="#fbe7c8" d="M3078.55 1381.14c-59.41 620.93-206.53 1332.2-206.53 1332.2H1174.91S729.85 727.88 1028.07 505.15c485.86-362.78 1761.45-246.15 1990.68 0 46.8 50.27 71.4 157.21 80.26 298.16 10.09 159.85.06 363.46-20.46 577.83" class="svgShape colorc8d9fb-13 selectable"/><path fill="#fe9400" d="M3324.42 2725.25H703.75c-5 0-9.05-4.05-9.05-9.05s4.05-9.05 9.05-9.05h2620.67c5 0 9.05 4.05 9.05 9.05s-4.05 9.05-9.05 9.05" class="svgShape colorc8d9fb-14 selectable"/><path fill="#fff" d="M1960.88 1283.77s-2.24 333.34-189.04 559.71c-120.35 145.84-535.72 233.16-636.4 162.6C878.48 1826 390.5 880.21 390.5 880.21l88.42-17.35 761.49 714.9z" class="svgShape colorffffff-15 selectable"/><path fill="#ffa45c" d="M707.2 1079.19c45.23 40.7 90.13 81.75 135.04 122.78l67.23 61.7 67.08 61.87 66.96 61.99 66.88 62.07 66.74 62.23c22.25 20.74 44.5 41.47 66.67 62.3l-5.23-.98 75.96-30.45 37.98-15.23 38.02-15.12 76.04-30.24 76.11-30.08c50.73-20.07 101.55-39.93 152.37-59.78 50.85-19.78 101.71-39.53 152.71-58.94-50.22 21.33-100.59 42.32-150.96 63.28-50.4 20.89-100.81 41.77-151.3 62.44l-75.73 31.03-75.79 30.86-37.9 15.43-37.94 15.33-75.87 30.66c-1.83.74-3.85.3-5.21-.96l-.02-.02c-22.27-20.72-44.45-41.53-66.63-62.34l-66.57-62.41-66.42-62.57-66.34-62.65-66.23-62.77-66.07-62.94c-43.97-42.05-87.94-84.09-131.58-126.49" class="svgShape color838bc5-16 selectable"/><path fill="#ead2ac" d="M1831.77 1353.72c-51.73 40.38-90.52 95.25-121.94 152.27-32.68 59.32-56.39 122.15-81 185.04-22.22 56.78-55.11 112.2-116.9 130.84-37.54 11.32-75.7 6.09-114.19 6.7-19.99.32-39.96 2.21-59.36 7.18-22.29 5.7-41.98 15.77-62.29 26.23-70.71 36.44-164.38 23.77-219.79-33.98-28.37-29.57-48.09-66.07-69.2-100.84-24.73-40.72-55.85-76.17-88.28-110.91-33.14-35.51-68.37-69.35-96.79-108.91-25.97-36.14-47.24-75.35-66.96-115.17-10.18-20.56-16.88-43.12-29.93-61.99-122.82-177.6-28.3-263.05-17.61-270.46 15.18-10.52-198.65-198.81-198.65-198.81l-98.37 19.31S878.49 1826 1135.45 2006.08c100.68 70.56 516.05-16.76 636.4-162.6 164.21-198.98 185.8-480.62 188.62-545.84-46.66 7.27-90.65 26.38-128.7 56.08" opacity=".35" class="svgShape coloracc3ea-17 selectable"/><path fill="#fff" d="M2942.27 2710.33H1594.06s-78.91-1501.4 648.91-1501.4c649.51 0 699.3 1501.4 699.3 1501.4" class="svgShape colorffffff-18 selectable"/><path fill="#ead2ac" d="M2622.86 1788.08c-13.96 19.28-28.91 38.2-46.22 54.58-17.45 16.52-36.87 30.83-57.01 43.89-39.71 25.76-81.85 47.59-121.96 72.73-36.46 22.85-74.01 47.21-116.14 58.05-42.48 10.94-85.27 3.51-124.88-14.11-42.48-18.9-81.49-46.33-115-78.44-33.68-32.28-60.77-69.91-85.5-109.3-26.26-41.84-48.86-85.95-68.31-131.33-35.84-83.64-61.62-172.05-75.39-262.07-15.81 56.99-1.67 273.02 10.01 322.12 50.39 211.94 189.95 389.59 303.01 438.17 15.51 6.67-21.13 522.12-5.14 527.92h255.31c11.05-6.72-3.2-539.82 9.28-543.63 254.47-77.71 282.47-324.14 280.56-444.25-13.32 22.47-27.3 44.52-42.62 65.67" opacity=".35" class="svgShape coloracc3ea-19 selectable"/><path fill="#5d5d5a" d="M2333.13 419.53c-38.63-32.55-170.82-63.1-196.29 57.32-2.28 10.79-13.64 34.44-41.68 30.1-97.26-15.05-126.69 73.54-125.17 150.65 1.04 52.63 27.67 101.53 34.14 153.77 4.42 35.7-.7 72.01 2.94 107.8 4.53 44.46 22.94 87.4 52.02 121.33 12.08 14.1 26.5 26.99 44.1 32.93 46.72 15.74 93.71-21.55 126.19-58.65 61.33-70.04 111.2-150.08 147.24-235.91a844 844 0 0 0 12.49-31.47c3.6-9.61 5.89-21.12 11.2-29.94 7.73-12.84 29.84-13 42.74-17.99 35.68-13.82 77.16-34.15 88.09-70.69 63.04-210.98-177.23-191.73-198.01-209.25" class="svgShape color324177-20 selectable"/><path fill="#a0a053" d="M2442.12 623.07c.71 0 1.43-.11 2.14-.36 2.05-.71 50.39-17.86 69.9-52.35 1.77-3.12.67-7.09-2.46-8.85-3.11-1.77-7.09-.67-8.85 2.46-17.08 30.19-62.41 46.32-62.87 46.48-3.39 1.19-5.18 4.89-4 8.27a6.5 6.5 0 0 0 6.14 4.35m-69.47-.53c2.32 0 4.57-1.25 5.74-3.45.66-1.24 16.29-31.05 28.55-94.42a6.483 6.483 0 0 0-5.14-7.61c-3.53-.71-6.93 1.62-7.61 5.14-11.85 61.19-27.12 90.5-27.27 90.8a6.49 6.49 0 0 0 2.69 8.78c.97.51 2.01.76 3.04.76m-83.12-8.92a6.51 6.51 0 0 0 6.47-5.89c.16-1.75 3.82-43.62-10.63-113.24-.73-3.52-4.15-5.79-7.68-5.04a6.49 6.49 0 0 0-5.04 7.68c14.01 67.51 10.45 108.99 10.41 109.4a6.5 6.5 0 0 0 5.88 7.06c.19.02.39.03.59.03m-106.78 19.63c.51 0 1.03-.06 1.54-.18 3.48-.85 5.63-4.36 4.78-7.85-.69-2.84-17.23-69.87-46.66-97.12-2.63-2.45-6.73-2.29-9.18.35a6.496 6.496 0 0 0 .35 9.18c26.56 24.6 42.71 90 42.87 90.66a6.49 6.49 0 0 0 6.3 4.96m-90.4 39.07c1.43 0 2.86-.47 4.06-1.43a6.49 6.49 0 0 0 1-9.13c-1.4-1.75-34.7-42.88-64.12-51.42-3.44-1.03-7.04.98-8.04 4.43s.98 7.05 4.43 8.04c25.52 7.41 57.3 46.68 57.61 47.08a6.43 6.43 0 0 0 5.06 2.43" class="svgShape color5361a0-21 selectable"/><path fill="#ffcdab" d="M2019.97 861.29c10.61-28.61 42.17-47.86 72.46-44.21.24-34.96 2.7-70.28 13.08-103.66 27.42-88.18 302.85-80.47 314.4-56.65 3.19 6.59 52.76 175.82 59.39 237.11 6.64 61.28-2.89 128.43-44.97 173.48-33.04 35.38-88.31 49.08-139.38 43.32 16.2 52.18 36.82 122.74 49.88 161.89-31.65 24.7-214.69 1.2-254.68-2.23 9.19-62.36 22.74-265.87 31.93-328.22-22.42 20.69-58.83 13.61-75.99-.08-23.87-19.02-36.73-52.15-26.12-80.75" class="svgShape coloreac8ac-22 selectable"/><path fill="#23231f" d="M2226.16 1282.31c2.32-4.21 4.58-8.35 5.03-13.28.57-6.21-2.07-11.63-2.71-17.68-.47-4.44 1.3-5.72 5.05-7.44 17.78-8.16 40.46-19.44 44.07-41.06 3.99-23.93-22.05-39.52-37.8-52.3-9.55-7.75-16.04-16.02-21.77-26.84-5.07-9.55-11.72-20.52-11.58-31.73 9.72 2.91 19.14 6.74 28.83 9.79 11.34 3.58 23.24 6.14 34.92 8.32 8.34 1.56 16.83 2.3 25.37 2.59 16.1 51.97 36.36 121.22 49.26 159.89-15.29 11.94-65.92 12.61-118.67 9.74" opacity=".1" class="svgShape color231f20-23 selectable"/><path fill="#5d5d5a" d="M2058.24 896.92c1.59 0 3.17-.58 4.42-1.74a6.496 6.496 0 0 0 .34-9.18c-4.27-4.6-6.1-9.03-5.6-13.55 1.03-9.24 11.32-16.38 11.43-16.46a6.503 6.503 0 0 0 1.72-9.02c-2-2.96-6.05-3.74-9-1.74-.62.42-15.3 10.46-17.06 25.68-.97 8.41 2.05 16.46 8.98 23.93a6.45 6.45 0 0 0 4.77 2.08m325.06 24.23c17.34 0 35.94-15.12 38.3-17.1a6.497 6.497 0 0 0 1.1-8.77c-17.52-24.39-61.5-93.17-54.58-118.27 8.24-29.89 51.05-45.39 51.48-45.55a6.493 6.493 0 0 0 3.95-8.29c-1.19-3.39-4.9-5.15-8.29-3.97-2.02.72-49.62 17.88-59.67 54.35-8.79 31.9 38.19 102.95 52.89 124.12-7.78 5.39-20.92 12.62-29.14 9.9-3.44-1.14-7.09.7-8.22 4.1-1.14 3.41.7 7.09 4.1 8.22 2.62.88 5.34 1.26 8.08 1.26m-156.74-135.84c5.39 5.43 26.68-6.96 40.3-20.5s14.43-23.08 9.03-28.52c-5.4-5.43-14.95-4.69-28.57 8.84-13.63 13.55-26.16 34.74-20.76 40.18" class="svgShape color324177-24 selectable"/><path fill="#23231f" d="M2268.68 862.66c1.11 8.45 13.32 13.79 27.26 11.95s24.34-10.18 23.22-18.62-13.32-13.79-27.26-11.95c-13.93 1.85-24.33 10.18-23.22 18.62m131.96-27.21c1.11 8.45 13.32 13.79 27.26 11.95s24.34-10.18 23.22-18.62-13.32-13.79-27.26-11.95c-13.93 1.85-24.33 10.18-23.22 18.62" opacity=".05" class="svgShape color231f20-25 selectable"/><path fill="#5d5d5a" d="M2264.07 801.54c0 8.24 6.68 14.93 14.93 14.93s14.93-6.68 14.93-14.93c0-8.24-6.68-14.93-14.93-14.93s-14.93 6.69-14.93 14.93" class="svgShape color324177-26 selectable"/><circle cx="2408.1" cy="791.7" r="14.93" fill="#5d5d5a" class="svgShape color324177-27 selectable"/><path fill="#fff" d="M2398.9 958.08c-11.45 4.09-13.89 13.89-48.63 0-34.73-13.89-47.47-24.85-53.26-6.63-5.79 18.21 62.52 76.85 101.89 47.9 39.36-28.95 7.71-44.03 0-41.27" class="svgShape colorffffff-28 selectable"/><path fill="#23231f" d="M2372.75 1030.6c6.35 0 13.14-1.33 20.38-4.75a6.516 6.516 0 0 0 3.1-8.65 6.493 6.493 0 0 0-8.65-3.1c-15.8 7.46-28.97 1.32-41.68-4.63l-1.52-.7a6.5 6.5 0 0 0-8.63 3.15c-1.52 3.25-.11 7.11 3.15 8.63l1.49.7c9.23 4.32 19.98 9.35 32.36 9.35" opacity=".05" class="svgShape color231f20-29 selectable"/><path fill="#ffa45c" class="svgShape color838bc5-30 selectable" d="m2112.69 1328.21-56.8 13.96 69.58-82.53 82.06 18.05 79.02-17.01 71.11 80.01-61.66-15.7-26.36 96.63 89.33 1288.69h-283.54l75.11-1293.86z"/><radialGradient id="a" cx="1564.609" cy="1138.329" r="324.67" gradientTransform="matrix(-1 0 0 1 3788.486 0)" gradientUnits="userSpaceOnUse"><stop offset="0" stop-color="#fff" class="svgShape stopColorffffff-32"/><stop offset="1" stop-color="#f6e1c1" class="svgShape stopColorc1e7f6-33"/></radialGradient><path fill="url(#a)" d="m2286.55 1260.68 89.94 106.67s115.51-65.71 81.64-101.94c-33.87-36.22-141.23-82.67-141.23-82.67l15.67 60.68z" class="svgShape colorgradient-34 selectable"/><radialGradient id="b" cx="1564.609" cy="1138.329" r="324.671" gradientTransform="matrix(-1 0 0 1 3788.486 0)" gradientUnits="userSpaceOnUse"><stop offset="0" stop-color="#fff" class="svgShape stopColorffffff-36"/><stop offset="1" stop-color="#f6e1c1" class="svgShape stopColorc1e7f6-37"/></radialGradient><path fill="url(#b)" d="m2125.47 1259.64-89.94 106.67s-86.44-75.07-52.57-111.3 117.5-83.62 117.5-83.62l-7.42 76.09z" class="svgShape colorgradient-38 selectable"/><path fill="#fff" d="M1728.22 1071.73c34.27 0 76.91-89.86 76.91-89.86l401.83 647.45s189.82-259.05 296.59-315.29c127.72 31.41 392.85 497.72-190.61 807.06-412.56 218.72-522.73-722.37-584.72-1049.36" class="svgShape colorffffff-39 selectable"/><path fill="#e5bea3" d="M1807.17 959.19s-5.64-6.18-19.52-20.07c-13.89-13.89-19.84-50.59-29.76-48.11s-19.34 51.47-3.97 73.1c15.38 21.63 47.48 9.2 53.25-4.92" class="svgShape colore5b0a3-41 selectable"/><path fill="#fe9400" class="svgShape coloracc3ea-42 selectable" d="M315.48 572.45h1451.51v495.16H315.48z"/><path fill="#fff" d="M652.27 822.05c0 8.32 0 14.04-.78 27.3-1.82 31.46-22.36 54.09-68.9 54.09-48.62 0-68.64-25.48-69.95-64.49l-.26-7.8h46.81l.51 7.8c1.56 23.4 10.93 30.16 24.19 30.16 13 0 19.76-8.32 21.06-22.62.52-5.98.52-11.7.52-17.16V720.39h46.8zm211.18-11.96c0 57.47-35.88 93.35-91.79 93.35-55.9 0-91.79-35.88-91.79-93.35 0-57.72 35.88-93.34 91.79-93.34 55.9 0 91.79 35.62 91.79 93.34m-47.85 0c0-38.22-16.9-59.02-43.94-59.02s-43.94 20.8-43.94 59.02c0 37.97 16.9 59.03 43.94 59.03 27.04-.01 43.94-21.06 43.94-59.03m75.99 89.71V720.39h46.8V899.8zm192.17 0-65.27-118.56c1.56 18.2 1.56 34.06 1.56 44.46v74.1h-46.81V720.39h58.25l68.12 123.76c-1.3-18.2-1.56-36.66-1.56-47.06v-76.7h46.8V899.8zm297.79-78.79c0 9.1 0 14.56-.77 25.22-2.09 30.16-23.41 57.21-78.79 57.21s-76.7-27.05-78.79-57.21c-.77-10.66-.77-16.12-.77-25.22V720.39h46.8v109.2c0 4.95 0 7.55.26 10.66 1.3 18.73 11.96 28.87 32.5 28.87s31.2-10.14 32.5-28.87c.26-3.11.26-5.71.26-10.66v-109.2h46.8zm164.64-45.24h-46.8c-2.08-14.82-9.88-24.7-25.22-24.7-10.66 0-17.94 5.2-17.94 16.12 0 11.44 8.32 18.46 37.96 25.48 39.52 9.35 55.64 29.12 55.64 56.68 0 35.88-34.32 54.09-70.47 54.09-45.5 0-76.18-18.21-79.04-58.5h46.8c3.12 16.9 16.9 24.18 30.94 24.18 13 0 22.88-6.76 22.88-16.64 0-9.36-6.76-17.42-28.86-22.88-40.82-10.14-64.75-22.88-64.75-58.76 0-34.58 32.25-54.08 67.87-54.08 47.34-.01 67.1 25.73 70.99 59.01" class="svgShape colorffffff-43 selectable"/><path fill="#ffcdab" d="M388.6 743.34c2.91-13.26-21.87-23.84-37.94-29.65 15.51.28 34.05-6.61 28.02-18.35-12.74-24.82-87.59-48.13-104.53-34.75s4.57 40.31 4.57 40.31c-6.14 3-13.64 7.26-16.18 11.22-16.77 26.1 9.05 40.31 9.05 40.31-21.5 22.27 3.48 43.44 3.48 43.44-24.47 25.42 4.85 42.84 4.85 42.84s59.55 20.4 85.56 4.9c26.01-15.49-52.99-40.99-52.99-40.99s63.09 10.45 68.19-6.87c8.87-30.11-60.67-38.19-60.67-38.19s62.61 13 68.59-14.22" class="svgShape coloreac8ac-44 selectable"/><path fill="#fff" d="M354.57 725.52c-.09 1.17-3.2 26.11-3.2 26.11s23.8 6.18 27.42-5.99c3.48-11.7-24.22-20.12-24.22-20.12m3.68-39.68c-.17.81-6.23 20.18-6.23 20.18s15.15.1 18.15-7.55c2.7-6.89-11.92-12.63-11.92-12.63m-3.53 89.38c-.24 1.15-4.68 22.93-4.68 22.93s19.67 6.53 23.62-4.37c3.73-10.28-18.94-18.56-18.94-18.56m-7.17 48.29c-.18.86-4.6 17.6-4.6 17.6s19.92 4.47 21.14-2.16c1.99-10.87-16.54-15.44-16.54-15.44" opacity=".5" class="svgShape colorffffff-45 selectable"/><path fill="#ffcdab" d="M1807.17 959.19s-139.72-10.08-144.54 15.71c-2.26 12.06 44.58 19.6 81.39 23.69-45.18-3.36-84.94-1.2-81.19 12.52 2.89 10.55 42.88 16.48 79.34 22.01-25.34-1.51-77.52-3.07-77.68 8-.28 18.79 51.54 22.68 86.59 24.55-20.94.31-74.75.86-75.01 10.99-.23 8.97 9.91 17.19 53.99 19.38 25.73 1.27 24.66 6.16 36.47 4.44 9.11-1.32 18.7-1.68 25.52-6.37 32.85-22.52 34.12-124.07 15.12-134.92" class="svgShape coloreac8ac-47 selectable"/><path fill="#fff" d="M1679.56 1078.33c.93-4.67 15.74-7.32 17.19-6.44 0 0-.09 12.23-1.05 14.3-.97 2.08-17.07-3.19-16.14-7.86m-12.07-35.1c.92-4.67 15.74-7.32 17.2-6.44 0 0-.09 12.23-1.06 14.3-.96 2.08-17.07-3.19-16.14-7.86m-.41-35.16c.93-4.67 15.74-7.32 17.19-6.44 0 0-.09 12.23-1.06 14.3-.95 2.08-17.06-3.19-16.13-7.86m.41-34.54c.92-4.67 15.74-7.32 17.19-6.43 0 0-.09 12.23-1.05 14.3s-17.07-3.2-16.14-7.87" opacity=".2" class="svgShape colorffffff-48 selectable"/><path fill="#23231f" d="m1745.51 1065.72 44.87-6.33s9.09 14.8-3.93 29.09c0 0 23.34-9.89 24.31-61.56.96-51.68-4.79-58.47-4.79-58.47s-.4 16.07-11.56 24.86c-2.49 1.97-49.7 5.16-46.77 5.28 2.92.12 45.01 3.78 45.01 3.78l-.57 21.87-43.97 8.33 44.3.31-1.24 18.62z" opacity=".1" class="svgShape color231f20-49 selectable"/><path fill="#ffa45c" d="M1205.2 2360.91v-5.32c5.28 0 10.59-.03 15.94-.08l.05 5.32c-5.37.05-10.7.08-15.99.08m-16-.07c-5.37-.05-10.7-.14-16-.24l.11-5.32c5.28.11 10.59.19 15.94.24zm47.99-.25-.11-5.32c5.28-.11 10.59-.24 15.94-.4l.16 5.32c-5.37.16-10.7.29-15.99.4m-79.98-.4c-5.37-.17-10.69-.36-15.99-.58l.22-5.32c5.27.22 10.58.42 15.93.58zm111.96-.54-.21-5.32c5.28-.21 10.59-.43 15.93-.69l.25 5.32c-5.35.25-10.68.48-15.97.69m-143.93-.81c-5.37-.29-10.69-.6-15.97-.95l.35-5.31c5.26.34 10.56.66 15.91.94zm175.88-.72-.3-5.31c5.27-.3 10.58-.62 15.92-.97l.34 5.31c-5.35.35-10.67.68-15.96.97m-207.82-1.36c-5.36-.41-10.67-.86-15.95-1.33l.48-5.3c5.25.47 10.54.91 15.88 1.33zm239.74-.71-.39-5.31q7.905-.585 15.9-1.23l.43 5.31c-5.34.43-10.66.84-15.94 1.23m-271.61-2.15c-5.35-.55-10.65-1.13-15.91-1.74l.61-5.29c5.23.61 10.51 1.18 15.84 1.73zm303.49-.45-.48-5.3c5.27-.47 10.56-.97 15.88-1.49l.51 5.3c-5.33.52-10.64 1.02-15.91 1.49m31.83-3.11-.56-5.29c5.26-.55 10.55-1.13 15.86-1.73l.6 5.29c-5.33.6-10.63 1.18-15.9 1.73m-367.11-.13c-5.33-.69-10.62-1.42-15.86-2.17l.76-5.27c5.21.75 10.48 1.47 15.78 2.16zm398.89-3.45-.63-5.29c5.25-.63 10.53-1.28 15.83-1.96l.68 5.28c-5.33.68-10.62 1.34-15.88 1.97m-430.58-1.11c-5.32-.84-10.58-1.72-15.79-2.63l.92-5.25c5.19.9 10.42 1.77 15.71 2.62zm462.3-2.94-.71-5.28c5.24-.71 10.51-1.43 15.8-2.18l.75 5.27c-5.31.75-10.59 1.49-15.84 2.19m-493.84-2.55c-5.29-1.01-10.53-2.04-15.71-3.11l1.08-5.21c5.16 1.06 10.36 2.1 15.62 3.1zm525.5-1.94-.79-5.27c5.23-.78 10.49-1.58 15.77-2.4l.82 5.26c-5.28.83-10.55 1.63-15.8 2.41m-556.85-4.54c-5.26-1.18-10.45-2.39-15.6-3.63l1.25-5.17c5.11 1.23 10.28 2.44 15.51 3.61zm588.45-.36-.85-5.26c5.23-.84 10.47-1.71 15.74-2.6l.88 5.25c-5.28.89-10.54 1.75-15.77 2.61m31.53-5.32-.91-5.25c5.21-.91 10.45-1.84 15.71-2.8l.95 5.24c-5.28.96-10.52 1.89-15.75 2.81m-651.11-1.85c-5.21-1.36-10.37-2.76-15.46-4.19l1.44-5.13c5.06 1.42 10.18 2.81 15.37 4.16zm682.57-3.86-.98-5.23 5.54-1.04.99 5.23zm-713.41-4.8c-5.16-1.56-10.26-3.15-15.29-4.77l1.64-5.06c5 1.61 10.06 3.19 15.19 4.74zm-30.49-9.85a756 756 0 0 1-15.08-5.41l1.85-4.99q7.38 2.73 14.97 5.37zm-30.05-11.15c-5.02-1.99-9.96-4.02-14.83-6.08l2.07-4.9c4.83 2.05 9.74 4.06 14.72 6.03zm-29.51-12.51c-4.92-2.23-9.76-4.5-14.52-6.8l2.32-4.79c4.72 2.29 9.52 4.53 14.4 6.74zm-28.86-13.99c-4.8-2.49-9.52-5.01-14.14-7.57l2.58-4.66c4.58 2.54 9.25 5.04 14.01 7.51zm-28.05-15.55a482 482 0 0 1-13.67-8.4l2.86-4.49c4.41 2.8 8.92 5.58 13.53 8.31zm-27.08-17.23c-4.48-3.06-8.85-6.15-13.1-9.28l3.15-4.29c4.21 3.09 8.53 6.15 12.95 9.17zm-25.88-19.01c-4.26-3.36-8.39-6.77-12.41-10.2l3.46-4.04c3.96 3.39 8.05 6.75 12.25 10.07zm-24.4-20.89c-3.98-3.69-7.83-7.42-11.55-11.18l3.79-3.75c3.67 3.7 7.46 7.38 11.39 11.02zm-22.61-22.85a342 342 0 0 1-10.51-12.18l4.11-3.38c3.29 4 6.77 8.04 10.34 11.99zm-20.42-24.87c-3.22-4.35-6.32-8.79-9.23-13.19l4.44-2.93c2.86 4.33 5.91 8.69 9.07 12.96zm-17.71-26.89c-2.72-4.68-5.3-9.45-7.68-14.17l4.76-2.39c2.33 4.62 4.86 9.3 7.52 13.89zm-14.47-28.8c-2.12-4.99-4.08-10.06-5.81-15.05l5.03-1.75c1.7 4.88 3.61 9.84 5.68 14.72zM563 2063.42c-1.4-5.21-2.62-10.51-3.61-15.75l5.23-.99c.97 5.11 2.15 10.27 3.52 15.35zm-5.99-31.73c-.58-5.38-.95-10.81-1.08-16.13l5.32-.14c.13 5.18.49 10.46 1.05 15.7zm4.51-32-5.31-.32c.32-5.39.89-10.81 1.68-16.11l5.27.79a181 181 0 0 0-1.64 15.64m4.65-31.06-5.17-1.26c1.27-5.24 2.8-10.47 4.54-15.55l5.04 1.72c-1.69 4.92-3.17 10-4.41 15.09m10.16-29.72-4.86-2.17c2.19-4.9 4.63-9.77 7.27-14.48l4.65 2.6c-2.56 4.56-4.94 9.29-7.06 14.05m15.35-27.43-4.4-3c3-4.4 6.26-8.77 9.69-12.97l4.13 3.36c-3.34 4.09-6.51 8.33-9.42 12.61m19.86-24.38-3.83-3.7c3.7-3.84 7.63-7.6 11.68-11.19l3.53 3.99c-3.95 3.49-7.77 7.16-11.38 10.9m23.57-20.9-3.22-4.24c4.22-3.21 8.66-6.34 13.2-9.3l2.91 4.46c-4.44 2.89-8.77 5.95-12.89 9.08m26.39-17.27-2.6-4.64c4.23-2.37 8.62-4.68 13.06-6.84l1.23-.6 2.33 4.79-1.24.6c-4.34 2.12-8.64 4.37-12.78 6.69m28.38-14.33-2.35-4.78c4.75-2.33 9.52-4.69 14.32-7.07l2.37 4.77q-7.215 3.57-14.34 7.08m28.64-14.21-2.39-4.76c4.74-2.38 9.5-4.77 14.26-7.18l2.41 4.75c-4.77 2.41-9.53 4.81-14.28 7.19m28.54-14.45-2.43-4.74q7.08-3.63 14.19-7.32l2.45 4.73c-4.75 2.46-9.49 4.9-14.21 7.33m28.39-14.75-2.48-4.71c4.7-2.47 9.39-4.96 14.1-7.48l2.51 4.7c-4.72 2.52-9.43 5.02-14.13 7.49m28.21-15.08-2.54-4.68c4.67-2.53 9.33-5.09 14-7.67l2.57 4.66c-4.68 2.59-9.35 5.15-14.03 7.69m28-15.48-2.61-4.64c4.63-2.6 9.26-5.23 13.88-7.88l2.65 4.62c-4.63 2.66-9.27 5.29-13.92 7.9m27.8-15.94-2.69-4.6c4.6-2.69 9.18-5.4 13.76-8.14l2.73 4.57c-4.58 2.75-9.19 5.47-13.8 8.17m27.52-16.45-2.78-4.54c4.54-2.77 9.07-5.57 13.58-8.39l2.82 4.51c-4.52 2.83-9.06 5.64-13.62 8.42m27.15-16.98-2.88-4.48c4.47-2.87 8.93-5.76 13.37-8.67l2.92 4.45c-4.44 2.92-8.92 5.83-13.41 8.7m26.73-17.57-2.98-4.41c4.4-2.97 8.78-5.96 13.13-8.98l3.04 4.37c-4.37 3.03-8.77 6.04-13.19 9.02m26.25-18.22-3.09-4.33c4.31-3.08 8.6-6.19 12.86-9.33l3.16 4.29c-4.29 3.16-8.6 6.28-12.93 9.37m25.74-18.96-3.22-4.24c4.24-3.22 8.44-6.47 12.61-9.74l3.29 4.19c-4.19 3.29-8.41 6.56-12.68 9.79m25.19-19.8-3.36-4.13c4.13-3.36 8.22-6.75 12.26-10.16l3.44 4.07c-4.07 3.43-8.19 6.84-12.34 10.22m24.49-20.67-3.51-4c4-3.51 7.95-7.05 11.86-10.62l3.59 3.93c-3.93 3.59-7.92 7.15-11.94 10.69m23.66-21.63-3.68-3.85c3.85-3.67 7.65-7.37 11.4-11.11l3.76 3.77c-3.77 3.76-7.6 7.49-11.48 11.19m22.7-22.65-3.85-3.68c3.68-3.84 7.29-7.72 10.85-11.63l3.94 3.58c-3.59 3.94-7.24 7.85-10.94 11.73m21.57-23.74-4.03-3.47c3.47-4.03 6.87-8.09 10.21-12.19l4.13 3.36c-3.38 4.14-6.81 8.23-10.31 12.3m20.25-24.9-4.23-3.24c3.23-4.21 6.38-8.47 9.46-12.76l4.33 3.1c-3.11 4.35-6.3 8.64-9.56 12.9m18.71-26.08-4.42-2.96c2.95-4.41 5.82-8.86 8.6-13.34l4.52 2.81a498 498 0 0 1-8.7 13.49m16.92-27.29-4.62-2.64q3.945-6.9 7.62-13.92l4.72 2.47c-2.48 4.74-5.06 9.44-7.72 14.09m14.88-28.47-4.81-2.28c2.26-4.76 4.42-9.57 6.49-14.42l4.9 2.08c-2.1 4.92-4.29 9.8-6.58 14.62m12.56-29.51-4.98-1.88q2.79-7.41 5.28-14.94l5.06 1.66c-1.69 5.1-3.47 10.15-5.36 15.16m10.05-30.56-5.13-1.45c1.43-5.07 2.74-10.18 3.95-15.33l5.18 1.22a335 335 0 0 1-4 15.56m7.33-31.28-5.23-.98c.97-5.16 1.83-10.42 2.57-15.62l5.27.74c-.76 5.28-1.63 10.62-2.61 15.86m4.49-31.82-5.3-.5c.5-5.22.89-10.49 1.16-15.79l5.32.28c-.27 5.37-.67 10.71-1.18 16.01m1.66-32.08-5.32-.04.01-2.85c0-4.3-.08-8.64-.23-13l5.32-.19c.16 4.42.23 8.82.23 13.18zm-6.43-31.73c-.4-5.23-.92-10.49-1.54-15.79l5.29-.62c.63 5.37 1.15 10.7 1.56 16zm-3.7-31.51q-1.215-7.755-2.76-15.63l5.23-1.02c1.04 5.31 1.97 10.58 2.8 15.82zm-6.09-31.15c-1.19-5.1-2.49-10.23-3.88-15.4l5.14-1.39c1.41 5.23 2.72 10.42 3.92 15.57zm-8.27-30.65c-1.53-5.01-3.16-10.04-4.88-15.12l5.04-1.72c1.74 5.12 3.39 10.22 4.93 15.28zm-10.23-30.09c-1.84-4.91-3.76-9.84-5.78-14.81l4.93-2.01c2.04 5.01 3.98 9.99 5.83 14.95zM3385 2313.23h-.68l.06-5.32h.61c5.02 0 9.97-.47 14.73-1.39l1.01 5.22c-5.08.99-10.38 1.49-15.73 1.49m-17.01-1.62c-5.29-1-10.61-2.47-15.79-4.37l1.83-5c4.92 1.8 9.95 3.19 14.95 4.14zm48.53-4.73-2.12-4.88c4.72-2.05 9.17-4.64 13.23-7.69l3.2 4.26c-4.39 3.3-9.2 6.1-14.31 8.31m-79.21-6.41c-4.72-2.58-9.34-5.56-13.73-8.84l3.19-4.26c4.2 3.13 8.6 5.97 13.1 8.44zm105.5-13.34-4.1-3.39c3.2-3.88 6.03-8.2 8.4-12.85l4.74 2.42c-2.54 5-5.58 9.65-9.04 13.82m-131.62-6.09c-3.83-3.73-7.51-7.79-10.94-12.06l4.15-3.33c3.3 4.1 6.83 8 10.5 11.57zm146.66-23.04-5.12-1.48c.92-3.18 1.69-6.53 2.28-9.93.31-1.79.6-3.57.84-5.33l5.27.74c-.26 1.82-.54 3.66-.87 5.51-.62 3.59-1.43 7.13-2.4 10.49m-167.04-2.25c-2.83-4.49-5.5-9.26-7.92-14.17l4.77-2.35c2.34 4.74 4.92 9.35 7.65 13.69zm171.74-29.93-5.32-.18c.05-1.52.08-3.03.08-4.52 0-3.74-.16-7.48-.48-11.1l5.3-.46c.33 3.78.5 7.68.5 11.57 0 1.55-.03 3.11-.08 4.69m-8.07-31.17c-1.12-5.05-2.59-10.05-4.37-14.88l5-1.85c1.86 5.05 3.41 10.29 4.58 15.58zm-10.72-29.04c-2.4-4.51-5.16-8.97-8.19-13.26l4.35-3.07c3.16 4.47 6.04 9.12 8.54 13.83zm-17.93-25.45c-3.39-3.78-7.1-7.53-11.03-11.13l3.59-3.93c4.06 3.71 7.9 7.59 11.4 11.5zm-23.07-21.21c-4.04-3.1-8.37-6.17-12.85-9.12l2.92-4.45c4.59 3.02 9.03 6.16 13.17 9.35zm-26.33-17.35c-4.45-2.54-9.15-5.04-13.96-7.45l2.38-4.76c4.9 2.45 9.68 5 14.22 7.58zm-28.31-14.19c-4.77-2.11-9.66-4.15-14.65-6.11l1.95-4.95c5.05 1.99 10.01 4.05 14.85 6.19zm-29.53-11.65c-4.95-1.74-9.98-3.42-15.08-5.04l1.61-5.07c5.16 1.63 10.24 3.33 15.24 5.09zm-61.14-17.58c-5.14-1.2-10.33-2.35-15.55-3.45l1.1-5.21q7.89 1.665 15.66 3.48zm29.11 7.47c-5.14-1.2-10.33-2.35-15.55-3.45l1.1-5.21q7.89 1.665 15.66 3.48zm-60.28-14.06c-5.2-.99-10.43-1.94-15.68-2.85l.9-5.25c5.28.91 10.54 1.87 15.77 2.86zm-31.41-5.43c-5.26-.82-10.54-1.6-15.82-2.34l.74-5.27c5.31.75 10.61 1.53 15.9 2.35zm-31.66-4.45c-5.27-.66-10.56-1.29-15.83-1.88l.59-5.29c5.3.6 10.6 1.22 15.9 1.89zm-31.66-3.55c-5.31-.53-10.61-1.03-15.89-1.49l.47-5.3c5.3.47 10.62.96 15.95 1.5zm-31.8-2.8c-5.34-.41-10.65-.79-15.92-1.14l.35-5.31c5.3.35 10.62.73 15.98 1.14zm-239.21-1.74-.38-5.31s5.71-.41 16.02-.93l.27 5.32c-10.23.51-15.9.92-15.91.92m207.36-.37c-5.36-.3-10.68-.57-15.94-.81l.24-5.32c5.28.24 10.62.51 15.99.82zm-175.52-1.27-.21-5.32c4.86-.19 10.2-.38 15.99-.56l.16 5.32c-5.77.17-11.1.36-15.94.56m143.62-.21c-5.39-.2-10.72-.37-15.96-.52l.15-5.32c5.26.15 10.6.32 16.01.52zm-111.73-.78-.12-5.32c5.09-.11 10.43-.21 15.99-.29l.07 5.32c-5.54.08-10.86.18-15.94.29m79.8-.11c-5.42-.1-10.75-.18-15.97-.24l.06-5.32q7.86.09 16.02.24zm-47.9-.33-.03-5.32q5.415-.03 11.04-.03l4.92.01.02 5.32-4.94-.01q-5.61 0-11.01.03" class="svgShape color838bc5-50 selectable"/><path fill="#fbe7c8" d="m3272.66 2109.29 18.89 106.68c.36 2.01-1 3.95-3.01 4.3l-165.47 29.31c-2.01.36-3.95-1-4.3-3.01l-18.89-106.68c-.36-2.01 1-3.95 3.01-4.3l165.47-29.31c2.01-.36 3.95 1 4.3 3.01" class="svgShape colorc8d9fb-52 selectable"/><radialGradient id="c" cx="2885.639" cy="1045.141" r="62.124" gradientTransform="rotate(21.685 218.843 2368.864)" gradientUnits="userSpaceOnUse"><stop offset="0" stop-color="#f9dcb0" class="svgShape stopColorbfb0f9-54"/><stop offset="1" stop-color="#fff1db" class="svgShape stopColorefdbff-55"/></radialGradient><path fill="url(#c)" d="m3099.76 2139.23 87.11 35.13c2.65 1.07 5.55 1.37 8.37.87s5.43-1.78 7.56-3.69l69.75-62.91-74.73 60.73a7.32 7.32 0 0 1-7 1.24z" opacity=".3" class="svgShape colorgradient-56 selectable"/><radialGradient id="d" cx="2940.794" cy="1133.892" r="62.124" gradientTransform="rotate(21.685 218.843 2368.864)" gradientUnits="userSpaceOnUse"><stop offset="0" stop-color="#f9dcb0" class="svgShape stopColorbfb0f9-58"/><stop offset="1" stop-color="#fff1db" class="svgShape stopColorefdbff-59"/></radialGradient><path fill="url(#d)" d="m3290.84 2211.9-87.11-35.13a15.24 15.24 0 0 0-8.37-.87c-2.82.5-5.43 1.78-7.56 3.69l-69.75 62.91 74.73-60.73a7.29 7.29 0 0 1 7-1.24z" opacity=".3" class="svgShape colorgradient-60 selectable"/><path fill="#ead2ac" d="M3197.46 2187.51c-.93 3.24-3.06 5.19-6.28 5.61-5.12.76-8.01-2.86-8.53-10.04l-.5-7.49c-.53-7.26 1.84-11.65 6.97-12.34 3.07-.47 5.32.78 6.76 3.45l-.31-4.3 6.98-1.24 1.54 21.41c.07 1.26.61 1.77 1.78 1.56 4.07-.72 4.22-10.05 2.91-17.47-1.61-9.09-7.08-14.58-17.19-12.78-12.95 2.29-17.88 13.82-14.95 30.41 2.07 11.71 8.75 18.03 20.31 15.98 5.38-.95 9.79-2.78 14.18-7.61l.66 7.09c-4.24 4.05-8.81 5.76-14.19 6.71-16.37 2.9-25.19-6.27-27.86-21.32-3.18-17.97 3.08-34.31 21.04-37.49 15.35-2.72 21.92 6.02 24.01 17.8 3.17 17.9-4.47 24.73-10.07 25.72-3.72.66-6.37-.3-7.26-3.66m-7.83-6.04c.23 3.41 1.71 4.57 3.98 4.25 2.2-.31 3.49-1.89 3.26-5.3l-.5-7.04c-.21-2.89-1.89-3.87-3.85-3.52-2.27.33-3.58 1.83-3.33 5.32z" class="svgShape coloracc3ea-61 selectable"/><path fill="#ead2ac" d="m3094.19 1187.86-451.41 13.18c-16.63 0-30.09-13.5-30.09-30.09V761.03c0-16.63 13.45-30.09 30.09-30.09h723.99c3.27 0 6.36.5 9.32 1.5 8.17 129.63-307.36 152.15-281.9 455.42" class="svgShape coloracc3ea-63 selectable"/><path fill="#fff" d="M3409.5 665.46h-724c-16.62 0-30.09 13.47-30.09 30.09v409.91c0 16.62 13.47 30.09 30.09 30.09h724c16.62 0 30.09-13.47 30.09-30.09V695.55c0-16.62-13.47-30.09-30.09-30.09" class="svgShape colorffffff-64 selectable"/><path fill="#ead2ac" d="M3361 945.51h-627.01c-9.16 0-16.6 7.43-16.6 16.6s7.43 16.6 16.6 16.6H3361c9.16 0 16.6-7.43 16.6-16.6s-7.43-16.6-16.6-16.6m-2.34-70.45h-146.98c-9.17 0-16.6 7.43-16.6 16.6v.34c0 9.17 7.43 16.6 16.6 16.6h146.98c9.16 0 16.6-7.43 16.6-16.6v-.34c0-9.17-7.44-16.6-16.6-16.6m-285.42 140.42H2734c-9.17 0-16.6 7.43-16.6 16.6v.34c0 9.17 7.43 16.6 16.6 16.6h339.24c9.16 0 16.6-7.43 16.6-16.6v-.34c-.01-9.17-7.44-16.6-16.6-16.6m142.23 0h-90.27c-9.17 0-16.6 7.43-16.6 16.6v.34c0 9.17 7.43 16.6 16.6 16.6h90.27c9.16 0 16.6-7.43 16.6-16.6v-.34c-.01-9.17-7.44-16.6-16.6-16.6m-481.48-106.89h415.03c9.17 0 16.6-7.43 16.6-16.6v-.34c0-9.17-7.43-16.6-16.6-16.6h-415.03c-9.16 0-16.6 7.43-16.6 16.6v.35c.01 9.17 7.44 16.59 16.6 16.59" class="svgShape coloracc3ea-65 selectable"/><circle cx="2924.15" cy="454.12" r="140.38" fill="#fbe7c8" transform="rotate(-79.753 2924.011 454.089)" class="svgShape colorc8d9fb-67 selectable"/><path fill="#fff" class="svgShape colorffffff-68 selectable" d="m3008.805 523.726-51.72-.149.282-98.14 51.72.15z"/><path fill="#fff" d="M2831.96 456.9h.5l.05-16.91c.02-8.97 7.32-16.22 16.29-16.2l45.59.13s-18.49-25.91-18.44-42.49c.04-14.83.76-34.48 22.64-34.42 0 0 7.94 4.92 7.87 27.21-.06 20.56 42.29 51.18 42.29 51.18l-.3 101.45s-9.31 8.59-23.9 8.55l-65.97-.19c-9.34-.03-16.89-7.62-16.86-16.96l.03-10.27a9.95 9.95 0 0 1-9.92-9.98l.03-11.94a5.964 5.964 0 0 1-5.95-5.98l.05-17.24a5.98 5.98 0 0 1 6-5.94" class="svgShape colorffffff-69 selectable"/></svg></svg>